<?xml version="1.0" standalone="no"?>
<!DOCTYPE svg PUBLIC "-//W3C//DTD SVG 20010904//EN"
 "http://www.w3.org/TR/2001/REC-SVG-20010904/DTD/svg10.dtd">
<svg version="1.0" xmlns="http://www.w3.org/2000/svg"
 width="302.000000pt" height="317.000000pt" viewBox="0 0 302.000000 317.000000"
 preserveAspectRatio="xMidYMid meet">

<g transform="translate(0.000000,317.000000) scale(0.100000,-0.100000)"
fill="#000000" stroke="none">
<path d="M1315 3154 c-183 -27 -350 -80 -515 -165 -149 -77 -262 -162 -386
-291 -258 -268 -397 -594 -409 -961 -5 -140 -3 -137 31 42 59 318 256 657 500
862 203 171 429 281 684 336 123 26 460 26 580 -1 290 -63 547 -203 755 -411
241 -241 381 -521 440 -880 l15 -90 -4 145 c-6 226 -48 396 -148 595 -208 414
-575 694 -1048 800 -73 16 -420 30 -495 19z"/>
<path d="M456 2130 c-73 -22 -90 -82 -85 -305 4 -170 13 -195 75 -221 33 -14
115 -13 242 2 l42 5 0 51 0 50 -99 -7 c-150 -11 -141 -21 -141 154 0 101 4
151 12 159 8 8 49 12 120 12 l108 0 0 55 0 55 -122 -1 c-68 0 -136 -5 -152 -9z"/>
<path d="M828 2134 c-5 -4 -8 -29 -8 -56 l0 -48 108 0 c119 0 132 -5 132 -55
0 -46 -15 -55 -97 -55 l-73 0 0 -50 0 -50 75 0 c62 0 79 -4 95 -20 24 -24 26
-63 3 -85 -14 -15 -31 -16 -130 -10 l-113 7 0 -50 0 -51 43 -5 c109 -13 211
-16 247 -6 50 13 70 43 77 114 7 65 -16 140 -48 157 -19 10 -19 11 5 40 47 56
43 150 -9 199 -25 23 -35 25 -163 28 -75 2 -140 1 -144 -4z"/>
<path d="M1310 1870 l0 -270 55 0 55 0 0 215 0 215 115 0 115 0 0 55 0 55
-170 0 -170 0 0 -270z"/>
<path d="M1760 1870 l0 -270 55 0 55 0 0 215 0 215 121 0 120 0 -3 53 -3 52
-172 3 -173 2 0 -270z"/>
<path d="M2217 2134 c-4 -4 -7 -126 -7 -271 l0 -263 60 0 60 0 0 110 0 110 26
0 c22 0 31 -12 76 -110 l51 -110 60 0 c43 0 58 3 54 13 -3 6 -31 68 -62 136
l-57 124 34 76 c26 58 39 77 56 79 20 3 22 9 22 58 l0 54 -45 0 c-59 0 -79
-21 -125 -129 -31 -74 -36 -81 -62 -81 l-27 0 -3 103 -3 102 -50 3 c-28 2 -54
0 -58 -4z"/>
<path d="M2997 1511 c-53 -501 -394 -982 -852 -1201 -743 -355 -1632 -32
-1989 721 -55 115 -99 248 -120 360 -34 179 -36 182 -31 44 9 -282 85 -519
240 -757 78 -119 234 -283 354 -374 107 -80 287 -173 422 -218 723 -240 1504
79 1839 752 96 193 139 364 147 590 6 146 1 188 -10 83z"/>
<path d="M190 1340 c0 -118 2 -140 15 -140 13 0 15 21 15 125 l0 125 60 0 c47
0 60 3 60 15 0 12 -15 15 -75 15 l-75 0 0 -140z"/>
<path d="M370 1340 l0 -140 81 0 c60 0 80 3 77 13 -3 7 -28 13 -66 15 l-62 3
0 49 0 50 55 0 c42 0 55 3 55 15 0 12 -13 15 -55 15 l-55 0 0 45 0 45 60 0
c47 0 60 3 60 15 0 12 -15 15 -75 15 l-75 0 0 -140z"/>
<path d="M603 1446 c-33 -30 -37 -39 -41 -93 -5 -71 13 -114 61 -143 89 -55
187 12 187 128 0 93 -44 142 -130 142 -32 0 -48 -7 -77 -34z m141 -21 c63 -68
22 -205 -61 -205 -14 0 -37 13 -54 29 -24 25 -29 37 -29 81 0 52 19 104 42
113 35 14 80 6 102 -18z"/>
<path d="M860 1340 c0 -133 1 -140 20 -140 18 0 20 7 20 66 0 63 1 65 23 58
34 -10 53 -31 72 -79 12 -32 22 -45 36 -45 19 0 19 1 -1 53 -11 28 -33 63 -49
77 l-30 26 50 62 c46 57 48 62 27 62 -17 0 -37 -19 -73 -67 l-50 -66 -3 66
c-3 59 -5 67 -22 67 -19 0 -20 -8 -20 -140z"/>
<path d="M1124 1461 c-70 -43 -79 -170 -16 -233 57 -58 158 -41 194 32 36 71
14 176 -43 205 -39 20 -98 19 -135 -4z m130 -42 c21 -25 26 -41 26 -86 0 -47
-4 -59 -29 -84 -35 -34 -68 -37 -104 -9 -77 61 -44 210 47 210 26 0 40 -7 60
-31z"/>
<path d="M1376 1398 c-4 -46 -9 -109 -12 -140 -6 -54 -5 -58 15 -58 19 0 21 6
21 58 0 31 3 80 6 109 l7 52 36 -107 c49 -144 58 -144 107 -2 l39 111 7 -48
c3 -26 7 -76 7 -110 1 -56 3 -63 21 -63 20 0 21 4 15 78 -15 204 -15 202 -39
202 -19 0 -27 -15 -60 -110 -21 -60 -40 -110 -41 -110 -2 0 -20 50 -40 110
-33 98 -39 110 -60 110 -22 0 -23 -5 -29 -82z"/>
<path d="M1710 1340 c0 -118 2 -140 15 -140 13 0 15 21 15 125 l0 125 65 0 65
0 0 -125 c0 -118 1 -125 20 -125 19 0 20 7 20 140 l0 140 -100 0 -100 0 0
-140z"/>
<path d="M1990 1379 c0 -100 -8 -133 -39 -156 -25 -19 -2 -35 29 -20 34 17 49
66 49 165 l1 82 45 0 45 0 0 -125 c0 -118 1 -125 20 -125 19 0 20 7 20 140 l0
140 -85 0 -85 0 0 -101z"/>
<path d="M2220 1340 l0 -140 80 0 c64 0 80 3 80 15 0 12 -13 15 -60 15 l-60 0
0 50 0 50 55 0 c42 0 55 3 55 15 0 12 -13 15 -55 15 l-55 0 0 45 0 45 60 0
c47 0 60 3 60 15 0 12 -16 15 -80 15 l-80 0 0 -140z"/>
<path d="M2430 1340 c0 -133 1 -140 20 -140 18 0 20 7 20 66 0 63 1 65 23 59
32 -10 49 -29 67 -77 11 -30 22 -44 37 -46 l22 -3 -20 53 c-11 29 -33 65 -51
80 l-31 27 47 54 c52 61 54 67 27 67 -12 0 -37 -24 -68 -66 l-48 -66 -3 66
c-3 58 -5 66 -22 66 -19 0 -20 -8 -20 -140z"/>
<path d="M2714 1471 c-32 -14 -72 -68 -80 -107 -8 -43 10 -108 36 -134 27 -27
91 -44 134 -36 58 11 45 32 -19 32 -70 -1 -105 29 -112 96 -10 84 41 134 127
126 32 -3 40 0 38 12 -4 17 -89 25 -124 11z"/>
</g>
</svg>
